<?xml version="1.0" encoding="UTF-8" standalone="no"?>
<svg xmlns="http://www.w3.org/2000/svg" viewBox="0 0 1604.73 567.46" width="100%" height="100%">
  <g id="Layer_2" data-name="Layer 2">
    <g id="full-color">
      <g id="line" opacity="1" transform-origin="963.5145568847656px 502.1453552246094px" style="transform: none; transform-origin: 963.515px 502.145px;">
        <path style="fill:#FFFFFF" d="M1604.73,501.31c-98,51.52-210.91,63.22-320,64.83-123.43,2.36-248.12,4.19-370-19.16-74.54-14-145.12-43-216.18-68.44-69.9-23.6-146.14-34.3-219.16-21.3-52.89,11.44-99.22,41.4-143.84,71.07a8.5,8.5,0,1,1-9.5-14.1c34.58-22.91,70.6-45.08,109.53-60.29,26.07-10.43,54.8-15.7,82.72-16.64,62.69-2.88,125.48,8.28,184.41,29.29,70.46,26.26,139.94,56,213.9,71,120.87,24.87,245.07,24.7,368,24,109-.12,221.58-10.25,320.11-60.33Z"></path>
      </g>
      <g id="pencil" opacity="1" transform-origin="168.80427265167236px 257.31776332855225px" style="transform: none; transform-origin: 168.804px 257.318px;">
        <polygon style="fill:#FFFFFF" points="324.9 527.5 335.2 467.69 270.25 501.1 324.9 527.5"></polygon>
        <path style="fill:#FFFFFF" d="M343.06,374,189.47,453a5.09,5.09,0,0,0,.12,9.11l80.66,39,64.95-33.41,15.2-88.29A5.09,5.09,0,0,0,343.06,374Z"></path>
        <path style="fill:#FFFFFF" d="M35.06,23.9H143.71A37.13,37.13,0,0,1,180.84,61v49.36a5,5,0,0,1-5,5H2.93a5,5,0,0,1-5-5V61A37.13,37.13,0,0,1,35.06,23.9Z" transform="translate(-21.96 48.6) rotate(-27.22)"></path>
        <rect style="fill:#FFFFFF" x="157.58" y="109.71" width="61.41" height="304.42" rx="10" transform="translate(-98.95 115.13) rotate(-27.22)"></rect>
        <rect style="fill:#FFFFFF" x="230.74" y="76.61" width="40.82" height="304.42" rx="10" transform="translate(-76.85 140.22) rotate(-27.22)"></rect>
        <rect style="fill:#FFFFFF" x="104.39" y="141.6" width="40.82" height="304.42" rx="10" transform="translate(-120.57 89.62) rotate(-27.22)"></rect>
      </g>
      <g id="text" opacity="1" transform-origin="944.8893737792969px 304.5719757080078px" style="transform: none; transform-origin: 944.889px 304.572px;">
        <path style="fill:#FFFFFF" d="M442.28,301.33a110,110,0,0,1-32.92-4.58q-14.62-4.56-27.95-16.06a20.59,20.59,0,0,1-5.23-6.53,16.24,16.24,0,0,1-1.83-7.32,15,15,0,0,1,4.31-10.58,14.32,14.32,0,0,1,10.85-4.57,13.85,13.85,0,0,1,8.88,3.14,82.82,82.82,0,0,0,19.72,12.27q9.79,4.18,24.17,4.18a50.77,50.77,0,0,0,17.76-3,34.7,34.7,0,0,0,13.06-8.1,16.2,16.2,0,0,0,5-11.62,19.77,19.77,0,0,0-4.71-13.33Q468.67,229.76,459,226t-24.56-5.88a109.71,109.71,0,0,1-24.82-6.4,57.57,57.57,0,0,1-17.89-11A43.27,43.27,0,0,1,380.89,187a53.32,53.32,0,0,1-3.66-20.24q0-17,8.75-29a54.84,54.84,0,0,1,23.64-18.29,84,84,0,0,1,32.92-6.27,94.26,94.26,0,0,1,31.48,5.1q14.49,5.08,23.64,12.93,7.57,6,7.58,13.85a14.91,14.91,0,0,1-4.45,10.45,13.93,13.93,0,0,1-10.45,4.7,11.5,11.5,0,0,1-7-2.35A47.3,47.3,0,0,0,472.06,151a101.59,101.59,0,0,0-14.89-5.48,53.93,53.93,0,0,0-14.63-2.22q-11.24,0-18.94,2.87T412,154a18,18,0,0,0-3.92,11.49,18.6,18.6,0,0,0,4.58,12.93q4.56,5.1,13.19,8.1a151.49,151.49,0,0,0,20.64,5.36A210.47,210.47,0,0,1,474,198.66a64.44,64.44,0,0,1,19.72,10.06,38.1,38.1,0,0,1,11.76,15.41q3.92,9.27,3.91,22.6,0,17-9.4,29.26a60.31,60.31,0,0,1-24.69,18.81A83.22,83.22,0,0,1,442.28,301.33Z"></path>
        <path style="fill:#FFFFFF" d="M599,156.34a96.18,96.18,0,0,1,26,3.13q11.1,3.14,17.24,8.76a17.6,17.6,0,0,1,6.14,13.45,17,17,0,0,1-3.13,9.8,10.41,10.41,0,0,1-9.15,4.57,17.52,17.52,0,0,1-6.92-1.18,17.89,17.89,0,0,1-4.83-3,27.89,27.89,0,0,0-5-3.4,24,24,0,0,0-8-2.48,52.37,52.37,0,0,0-8-.91q-13.32,0-22.6,5.74a38.41,38.41,0,0,0-14.24,15.55,49.3,49.3,0,0,0-5,22.59,47.79,47.79,0,0,0,5.09,22.34,39.89,39.89,0,0,0,14.11,15.54,37.72,37.72,0,0,0,20.77,5.75,69.7,69.7,0,0,0,11.23-.78,28.24,28.24,0,0,0,7.84-2.35,48.07,48.07,0,0,0,6.53-4.45c1.91-1.56,4.79-2.35,8.62-2.35q6.79,0,10.45,4.31A15.8,15.8,0,0,1,650,277.55q0,6.54-7.32,11.89t-19.2,8.62a96.69,96.69,0,0,1-25.73,3.27q-20.64,0-35.79-9.54a63.73,63.73,0,0,1-23.38-26q-8.24-16.45-8.23-36.84,0-21.42,8.75-37.75a65,65,0,0,1,24.3-25.6Q578.9,156.34,599,156.34Z"></path>
        <path style="fill:#FFFFFF" d="M746.09,156.34q18.81,0,28.61,8.1T788.15,186a113.88,113.88,0,0,1,3.66,29.91v66.88a15.64,15.64,0,0,1-4.44,11.36,16.1,16.1,0,0,1-22.47,0,15.64,15.64,0,0,1-4.44-11.36V215.9a53.76,53.76,0,0,0-2.09-15.54,21.32,21.32,0,0,0-7.58-11.1q-5.47-4.19-15.67-4.18-9.93,0-17,4.18a27,27,0,0,0-10.58,11.1A33.72,33.72,0,0,0,704,215.9v66.88a15.64,15.64,0,0,1-4.44,11.36,16.1,16.1,0,0,1-22.47,0,15.64,15.64,0,0,1-4.44-11.36V121.33A15.68,15.68,0,0,1,677.12,110a16.1,16.1,0,0,1,22.47,0A15.68,15.68,0,0,1,704,121.33v64.79l-3.92-.78a59.27,59.27,0,0,1,6.53-9.54,56.35,56.35,0,0,1,10.19-9.53,54.58,54.58,0,0,1,13.33-7.19A44.94,44.94,0,0,1,746.09,156.34Z"></path>
        <path style="fill:#FFFFFF" d="M986.69,159a14.12,14.12,0,0,1,10.45,4.57,16,16,0,0,1,4.44,11.63,18.64,18.64,0,0,1-.26,3.26,14.51,14.51,0,0,1-.78,2.75l-40,107.63a14.44,14.44,0,0,1-6.53,8,14.79,14.79,0,0,1-9.93,2q-8.88-.51-13.32-9.92l-25.87-74.46,6.8.27-24.3,74.19q-4.44,9.4-13.32,9.92a14.7,14.7,0,0,1-9.8-2,14.3,14.3,0,0,1-6.66-8l-40-107.63a17.4,17.4,0,0,1-1-6,17,17,0,0,1,4.18-11.24q4.19-4.95,11.5-5a17,17,0,0,1,8.88,2.35,12.67,12.67,0,0,1,5.49,7.58l31.61,85.68-6.53-.52,23.77-64.52q4.17-9.68,14.37-9.67c3.83,0,6.74.83,8.75,2.48a17.18,17.18,0,0,1,4.83,7.19L947.24,254l-7.83,1.05,32.13-86.21Q974.68,159,986.69,159Z"></path>
        <path style="fill:#FFFFFF" d="M1141.86,156.34a15.25,15.25,0,0,1,11.24,4.44,15.55,15.55,0,0,1,4.44,11.49V282.78a15.64,15.64,0,0,1-4.44,11.36,16.1,16.1,0,0,1-22.47,0,15.64,15.64,0,0,1-4.44-11.36V270l5.75,2.35c0,2.26-1.22,5-3.66,8.23a49.76,49.76,0,0,1-9.93,9.53,60.46,60.46,0,0,1-14.76,8,50.82,50.82,0,0,1-18.42,3.27,59.66,59.66,0,0,1-32.65-9.28,65.12,65.12,0,0,1-23.12-25.6q-8.49-16.32-8.49-37.49,0-21.42,8.49-37.75a66,66,0,0,1,22.86-25.6,57.54,57.54,0,0,1,31.87-9.27,60.23,60.23,0,0,1,20.64,3.4,61.44,61.44,0,0,1,16.33,8.62,49.56,49.56,0,0,1,10.71,10.58q3.78,5.35,3.78,9l-9.4,3.39V172.27a15.68,15.68,0,0,1,4.44-11.36A15,15,0,0,1,1141.86,156.34Zm-52.77,116.25a35.35,35.35,0,0,0,20.12-5.75,38.73,38.73,0,0,0,13.45-15.67A50.1,50.1,0,0,0,1127.5,229a50.67,50.67,0,0,0-4.84-22.46,38.82,38.82,0,0,0-13.45-15.68,35.42,35.42,0,0,0-20.12-5.74,35,35,0,0,0-19.85,5.74,38.82,38.82,0,0,0-13.45,15.68A50.54,50.54,0,0,0,1051,229a50,50,0,0,0,4.84,22.21,38.73,38.73,0,0,0,13.45,15.67A34.89,34.89,0,0,0,1089.09,272.59Z"></path>
        <path style="fill:#FFFFFF" d="M1207.17,298.71a15,15,0,0,1-11.23-4.57,15.6,15.6,0,0,1-4.44-11.36V174.89a15.64,15.64,0,0,1,4.44-11.37,16.08,16.08,0,0,1,22.46,0,15.69,15.69,0,0,1,4.45,11.37v24.55l-1.83-17.5a40.45,40.45,0,0,1,7.44-11.1,44.39,44.39,0,0,1,10.32-8.1,46.49,46.49,0,0,1,12.28-4.83,55.52,55.52,0,0,1,13.06-1.57,20,20,0,0,1,13.19,4.44q5.36,4.44,5.36,10.45,0,8.63-4.44,12.41a14.61,14.61,0,0,1-9.67,3.79,21.62,21.62,0,0,1-9-1.83,22.29,22.29,0,0,0-9.27-1.83,22.71,22.71,0,0,0-9.54,2.22,26.32,26.32,0,0,0-8.88,6.92,36.39,36.39,0,0,0-6.53,11.63,48.25,48.25,0,0,0-2.48,16.32v61.92a15.65,15.65,0,0,1-4.45,11.36A15,15,0,0,1,1207.17,298.71Z"></path>
        <path style="fill:#FFFFFF" d="M1306.44,161.56h61.91A14.29,14.29,0,0,1,1383,176.19a13.42,13.42,0,0,1-4.18,10.06,14.42,14.42,0,0,1-10.45,4.05h-61.91a14.29,14.29,0,0,1-14.63-14.63,13.45,13.45,0,0,1,4.18-10.06A14.41,14.41,0,0,1,1306.44,161.56Zm28-32.65a14.59,14.59,0,0,1,11.1,4.57,15.91,15.91,0,0,1,4.32,11.36V261.1a11.29,11.29,0,0,0,1.43,6,8.2,8.2,0,0,0,3.92,3.4,13.59,13.59,0,0,0,5.36,1.05,13.87,13.87,0,0,0,5.74-1.18,14.58,14.58,0,0,1,6-1.18,8.81,8.81,0,0,1,6.66,3.4q3,3.41,3,9.4,0,7.32-8,12a33.05,33.05,0,0,1-17.11,4.7,89.84,89.84,0,0,1-12.15-.91,32.86,32.86,0,0,1-12.54-4.44,27.18,27.18,0,0,1-9.8-10.84q-3.91-7.32-3.91-20.12V144.84a15.61,15.61,0,0,1,15.93-15.93Z"></path>
        <path style="fill:#FFFFFF" d="M1500.8,270a14.42,14.42,0,0,1,10.45,4,14.66,14.66,0,0,1,0,20.5,14.17,14.17,0,0,1-10.45,4.18h-84.12a12.9,12.9,0,0,1-10.45-4.7q-3.92-4.69-3.66-9.4a38.25,38.25,0,0,1,1-6.93,19.7,19.7,0,0,1,3.92-6.92l65-84.12-.53,3.66h-53a14.29,14.29,0,0,1-14.63-14.63,13.45,13.45,0,0,1,4.18-10.06,14.42,14.42,0,0,1,10.45-4.05h80.46a13.5,13.5,0,0,1,10.19,4.44,14.07,14.07,0,0,1,3.66,11.24,38,38,0,0,1-.91,5.22,18.06,18.06,0,0,1-3.53,6.27l-64,82.82V270Z"></path>
        <path style="fill:#FFFFFF" d="M755.09,350.83a12.06,12.06,0,0,1-8.47-3.12,10.57,10.57,0,0,1-3.41-8.18,10.25,10.25,0,0,1,3.41-8.08,12.31,12.31,0,0,1,8.47-3h86.47a12.14,12.14,0,0,1,8.48,3.11,10.57,10.57,0,0,1,3.4,8.18,10.27,10.27,0,0,1-3.4,8.09,12.35,12.35,0,0,1-8.48,3Zm43,113.93a12.35,12.35,0,0,1-9-3.41,11.34,11.34,0,0,1-3.5-8.47v-113H811v113a11.15,11.15,0,0,1-3.61,8.47A12.91,12.91,0,0,1,798.13,464.76Z"></path>
        <path style="fill:#FFFFFF" d="M925.89,360.56a11.2,11.2,0,0,1,8.38,3.41,11.71,11.71,0,0,1,3.31,8.47v49.47q0,20.65-11.49,32.72T893,466.7q-21.62,0-33-12.07t-11.4-32.72V372.44a11.71,11.71,0,0,1,3.31-8.47,12,12,0,0,1,16.75,0,11.67,11.67,0,0,1,3.31,8.47v49.47q0,11.88,5.26,17.63T893,445.28q10.71,0,16-5.74t5.26-17.63V372.44a11.67,11.67,0,0,1,3.31-8.47A11.16,11.16,0,0,1,925.89,360.56Z"></path>
        <path style="fill:#FFFFFF" d="M964.06,362.51h46.16a10.65,10.65,0,0,1,10.9,10.91,10.07,10.07,0,0,1-3.11,7.5,10.77,10.77,0,0,1-7.79,3H964.06a10.63,10.63,0,0,1-10.9-10.9,10,10,0,0,1,3.11-7.5A10.77,10.77,0,0,1,964.06,362.51Zm20.84-24.34a10.86,10.86,0,0,1,8.28,3.4,11.91,11.91,0,0,1,3.21,8.48v86.66a8.51,8.51,0,0,0,1.07,4.48,6.09,6.09,0,0,0,2.92,2.53,10.23,10.23,0,0,0,4,.78,10.4,10.4,0,0,0,4.28-.87,10.72,10.72,0,0,1,4.48-.88,6.6,6.6,0,0,1,5,2.53,10.24,10.24,0,0,1,2.24,7q0,5.46-5.94,9a24.7,24.7,0,0,1-12.76,3.51,67.79,67.79,0,0,1-9.06-.68,24.67,24.67,0,0,1-9.35-3.31,20.31,20.31,0,0,1-7.3-8.09q-2.93-5.44-2.92-15V350.05a11.63,11.63,0,0,1,11.88-11.88Z"></path>
        <path style="fill:#FFFFFF" d="M1142.65,412.76q0,16-7.1,28.14a51.08,51.08,0,0,1-19.09,19,56.06,56.06,0,0,1-53.56,0,50.91,50.91,0,0,1-19.08-19q-7.11-12.16-7.11-28.14t7.11-28.14a51.7,51.7,0,0,1,19.08-19.09,55.35,55.35,0,0,1,53.56,0,51.87,51.87,0,0,1,19.09,19.09Q1142.65,396.79,1142.65,412.76Zm-23.37,0a35.44,35.44,0,0,0-4-17.24,29.7,29.7,0,0,0-10.71-11.39,29.19,29.19,0,0,0-29.8,0,29.7,29.7,0,0,0-10.71,11.39,35.44,35.44,0,0,0-4,17.24,35,35,0,0,0,4,17,29.63,29.63,0,0,0,10.71,11.39,29.19,29.19,0,0,0,29.8,0,29.63,29.63,0,0,0,10.71-11.39A35,35,0,0,0,1119.28,412.76Z"></path>
        <path style="fill:#FFFFFF" d="M1174.79,464.76a11.2,11.2,0,0,1-8.38-3.41,11.65,11.65,0,0,1-3.31-8.47V372.44a11.67,11.67,0,0,1,3.31-8.47,12,12,0,0,1,16.75,0,11.67,11.67,0,0,1,3.31,8.47v18.31l-1.36-13.05a30.66,30.66,0,0,1,5.55-8.28,32.94,32.94,0,0,1,7.69-6,35.12,35.12,0,0,1,9.16-3.61,42,42,0,0,1,9.73-1.16,14.88,14.88,0,0,1,9.84,3.31,9.87,9.87,0,0,1,4,7.79q0,6.42-3.31,9.25a10.89,10.89,0,0,1-7.2,2.82,16.11,16.11,0,0,1-6.72-1.36,16.66,16.66,0,0,0-6.92-1.36,17,17,0,0,0-7.11,1.65,19.48,19.48,0,0,0-6.62,5.16,27.42,27.42,0,0,0-4.87,8.67,36.18,36.18,0,0,0-1.85,12.17v46.16a11.65,11.65,0,0,1-3.31,8.47A11.19,11.19,0,0,1,1174.79,464.76Z"></path>
        <path style="fill:#FFFFFF" d="M1257.75,347.9q-6.62,0-9.35-2.14c-1.82-1.43-2.72-4-2.72-7.59v-3.7c0-3.77,1-6.33,3-7.7s5.09-2,9.25-2q6.81,0,9.54,2.14t2.73,7.6v3.7c0,3.76-1,6.33-2.93,7.69S1262.16,347.9,1257.75,347.9Zm11.88,105a11.65,11.65,0,0,1-3.31,8.47,12,12,0,0,1-16.75,0,11.65,11.65,0,0,1-3.31-8.47V372.44a11.67,11.67,0,0,1,3.31-8.47,12,12,0,0,1,16.75,0,11.67,11.67,0,0,1,3.31,8.47Z"></path>
        <path style="fill:#FFFFFF" d="M1349.29,358.62q14.4,0,21.91,6a30.8,30.8,0,0,1,10.32,16.07,82.32,82.32,0,0,1,2.82,22.3v49.86a11.65,11.65,0,0,1-3.31,8.47,12,12,0,0,1-16.75,0,11.65,11.65,0,0,1-3.31-8.47V403a37.68,37.68,0,0,0-1.66-11.59,16,16,0,0,0-5.94-8.28q-4.27-3.11-12.26-3.11a25.83,25.83,0,0,0-13.15,3.11,21.33,21.33,0,0,0-8.18,8.28A23.79,23.79,0,0,0,1317,403v49.86a11.65,11.65,0,0,1-3.31,8.47,12,12,0,0,1-16.74,0,11.66,11.66,0,0,1-3.32-8.47V372.44a11.68,11.68,0,0,1,3.32-8.47,12,12,0,0,1,16.74,0,11.67,11.67,0,0,1,3.31,8.47v8.38l-2.92-.59a39,39,0,0,1,5.07-7.11,48.29,48.29,0,0,1,7.79-7.1,39.26,39.26,0,0,1,10.13-5.36A35.82,35.82,0,0,1,1349.29,358.62Z"></path>
        <path style="fill:#FFFFFF" d="M1452.89,358.62a42.73,42.73,0,0,1,15,2.53,43.71,43.71,0,0,1,11.78,6.42,38.71,38.71,0,0,1,7.79,7.89c1.88,2.66,2.83,4.9,2.83,6.72l-5.07,2.53V370.5a11.73,11.73,0,0,1,3.31-8.48,11.19,11.19,0,0,1,8.38-3.4,11.34,11.34,0,0,1,8.37,3.31,11.58,11.58,0,0,1,3.31,8.57v86.66q0,16.95-7.3,27.17a41.26,41.26,0,0,1-19.18,14.8,70.42,70.42,0,0,1-25.52,4.58,69.53,69.53,0,0,1-10.12-1q-6.24-1-11.88-2.34a66.19,66.19,0,0,1-8.57-2.53q-5.85-2.53-8.08-6.33a9.54,9.54,0,0,1-.88-8.09q1.76-5.64,5.65-7.69a9.73,9.73,0,0,1,8.18-.49c1.29.39,3.44,1.17,6.42,2.34a96.46,96.46,0,0,0,9.84,3.21,36.27,36.27,0,0,0,9.44,1.47q14.61,0,21.62-5.85t7-16.16V443.33l2.34,1.76q0,2.54-2.63,6.13a35.73,35.73,0,0,1-7.2,7.11,44,44,0,0,1-10.81,5.94,36.16,36.16,0,0,1-13.25,2.43,46.18,46.18,0,0,1-24.93-6.91,48.77,48.77,0,0,1-17.52-19.09q-6.43-12.17-6.43-27.94,0-16,6.43-28.14a49.3,49.3,0,0,1,17.33-19.09A44.52,44.52,0,0,1,1452.89,358.62Zm3.7,21.42a27.72,27.72,0,0,0-15.38,4.28A29.07,29.07,0,0,0,1430.89,396a36.9,36.9,0,0,0-3.7,16.75,36.44,36.44,0,0,0,3.7,16.55A29,29,0,0,0,1441.21,441a27.63,27.63,0,0,0,15.38,4.28,28,28,0,0,0,15.58-4.28,29.11,29.11,0,0,0,10.33-11.69,36.57,36.57,0,0,0,3.7-16.55,37,37,0,0,0-3.7-16.75,29.17,29.17,0,0,0-10.33-11.69A28.09,28.09,0,0,0,1456.59,380Z"></path>
      </g>
    </g>
  </g>
</svg>